<svg width="269" height="37" viewBox="0 0 269 37" fill="none" xmlns="http://www.w3.org/2000/svg">
<path fill-rule="evenodd" clip-rule="evenodd" d="M241.993 25.4257C241.993 32.1649 236.387 36.6952 228.038 36.6952C219.619 36.6952 214.175 32.9972 213.098 26.8409H222.113C222.587 26.8409 223.018 27.0692 223.327 27.4239C224.211 28.4494 225.726 28.934 227.989 28.934C228.74 28.934 232.483 28.8076 232.483 26.2509C232.483 24.3932 230.627 23.8594 226.432 22.8374L225.979 22.7251C220.352 21.4116 213.894 18.9498 213.894 11.5293C213.894 4.85323 218.963 0.86377 227.452 0.86377C235.142 0.86377 240.148 4.67413 240.835 10.7848H232.455C231.939 10.7848 231.43 10.5459 231.164 10.1035C230.301 8.67764 228.578 8.35104 227.182 8.35104C224.814 8.35104 223.229 9.28168 223.229 10.6724C223.229 12.3475 225.193 13.4748 230.013 14.553C236.082 15.9718 242 17.9805 242 25.4292L241.993 25.4257ZM260.255 22.6056H252.794H252.79V26.7286H268.071V32.0385C268.071 33.7101 266.72 35.0622 265.051 35.0622H248.847C246.718 35.0622 244.992 33.3344 244.992 31.2027V15.1956H260.255V22.6056ZM248.847 2.20179H265.051H265.054C266.724 2.20179 268.075 3.55385 268.075 5.22549V10.5354V10.7777H244.992V6.06131C244.992 3.92962 246.718 2.20179 248.847 2.20179ZM48.5602 2.37035H32.3569C30.2276 2.37035 28.5016 4.09819 28.5016 6.22988V10.5143H51.5841V10.272V5.39406C51.5841 3.72242 50.2335 2.37035 48.5637 2.37035H48.5602ZM36.3034 22.6056H43.7648V15.1956H28.5016V31.2027C28.5016 33.3344 30.2276 35.0622 32.3569 35.0622H48.5602C50.23 35.0622 51.5805 33.7101 51.5805 32.0385V26.7286H36.2999V22.6056H36.3034ZM105.333 2.2053H90.1155V10.7812H103.993C108.988 10.7356 112.089 14.0367 112.089 18.855C112.089 23.6241 108.992 26.7286 103.993 26.7286H99.8291V15.1886H90.1155V35.0657H105.333C114.77 35.0657 121.799 27.8418 121.799 18.8585C121.799 9.92084 114.77 2.20881 105.333 2.20881V2.2053ZM173.191 7.70486C173.191 4.70574 175.619 2.27553 178.614 2.27553H182.901V21.9138C182.901 30.3879 176.471 34.9709 168.89 34.9709C161.303 34.9709 154.967 30.3879 154.967 21.9138V2.27553H159.258C162.253 2.27553 164.681 4.70574 164.681 7.70486V21.9138C164.681 24.9691 166.579 26.6373 168.89 26.6373C171.202 26.6373 173.191 24.9691 173.191 21.9138V7.70486ZM196.466 26.8761V7.98581C196.466 4.8427 193.92 2.29309 190.78 2.29309H186.756V35.2132H205.303C208.443 35.2132 210.989 32.6636 210.989 29.5205V26.8796H196.466V26.8761ZM1.94285 28.0771C2.69355 27.3256 3.73191 26.8585 4.87902 26.8585H25.7198V30.8058C25.7198 33.2185 23.7659 35.1746 21.3559 35.1746H4.87902C2.58481 35.1746 0.725586 33.3098 0.725586 31.0165C0.725586 29.8682 1.19214 28.8287 1.94285 28.0771ZM4.87902 33.1693C5.47186 33.1693 6.01209 32.927 6.40147 32.5372C6.79085 32.1438 7.03291 31.603 7.03291 31.013C7.03291 29.8225 6.06471 28.8567 4.87902 28.8567C4.28617 28.8567 3.74594 29.0956 3.35656 29.4889C2.96718 29.8822 2.72513 30.423 2.72513 31.013C2.72513 31.6065 2.96718 32.1474 3.35656 32.5372C3.74945 32.927 4.28617 33.1693 4.87902 33.1693ZM140.841 2.27553H128.854C126.788 2.27553 125.111 3.9542 125.111 6.02619V10.6478H144.408V14.5986C144.408 17.0078 142.454 18.9603 140.051 18.9603H125.111V35.0587H134.825V26.718H140.837C148.33 26.718 152.399 20.3791 152.399 14.1737C152.399 7.96825 148.376 2.27202 140.837 2.27202L140.841 2.27553ZM139.609 12.193C141.041 12.193 142.202 13.3549 142.202 14.7883C142.202 16.2216 141.041 17.3835 139.609 17.3835C138.178 17.3835 137.017 16.2216 137.017 14.7883C137.017 13.3549 138.178 12.193 139.609 12.193ZM12.4808 14.5881H5.08949C2.67952 14.5881 0.725586 16.5372 0.725586 18.9498V22.8971H12.4808C13.6279 22.8971 14.6662 22.4336 15.4169 21.682C16.1712 20.927 16.6342 19.8875 16.6342 18.7391C16.6342 16.4459 14.775 14.5881 12.4808 14.5881ZM14.0032 20.0104C13.6138 20.3967 13.0771 20.639 12.4808 20.639C11.8844 20.639 11.3512 20.3967 10.9583 20.0104C10.5689 19.6206 10.3269 19.0797 10.3269 18.4827C10.3269 17.8857 10.5689 17.3519 10.9583 16.9586C11.3477 16.5723 11.8844 16.33 12.4808 16.33C13.6665 16.33 14.6347 17.2922 14.6347 18.4792C14.6347 19.0762 14.3926 19.6171 14.0032 20.0069V20.0104ZM0.729092 10.6232H10.5759V6.37738C10.5759 4.1333 8.75531 2.31065 6.51372 2.31065H0.729092V10.6232ZM67.7382 2.27202H72.695V2.26851C74.1403 2.26851 75.4277 3.18159 75.9048 4.5477L86.59 35.0587H79.6513C78.3708 35.0587 77.2273 34.2474 76.8028 33.0359L74.6314 26.8304H65.7983L63.6234 33.0394C63.1989 34.2509 62.0553 35.0622 60.7749 35.0622H53.8432L64.5284 4.55121C65.0055 3.1851 66.2929 2.27202 67.7382 2.27202ZM70.2148 15.1992C69.4185 15.1992 67.2752 22.6092 67.2752 22.6092H73.1475C73.1475 22.6092 71.0147 15.1992 70.2148 15.1992Z" fill="url(#paint0_radial_373_1199)"/>
<defs>
<radialGradient id="paint0_radial_373_1199" cx="0" cy="0" r="1" gradientUnits="userSpaceOnUse" gradientTransform="translate(134 8.77597) rotate(-90) scale(47 182.703)">
<stop stop-color="#BAFFFD"/>
<stop offset="1" stop-color="#EC5A67"/>
</radialGradient>
</defs>
</svg>
